<svg xmlns="http://www.w3.org/2000/svg" xmlns:xlink="http://www.w3.org/1999/xlink" version="1.1" x="0px" y="0px" viewBox="0 0 540 675" style="enable-background:new 0 0 540 540;" xml:space="preserve"><g><g><path d="M15,438.741C15,486.305,53.695,525,101.259,525h337.482C486.305,525,525,486.305,525,438.741V195H15V438.741z     M184.659,326.48l49.675-7.218l22.215-45.013c5.493-11.127,21.407-11.133,26.902,0l22.215,45.013l49.675,7.218    c12.28,1.783,17.203,16.92,8.313,25.585l-35.944,35.038l8.485,49.474c2.104,12.271-10.832,21.558-21.764,15.813L270,429.031    l-44.431,23.358c-10.98,5.771-23.862-3.573-21.764-15.813l8.485-49.474l-35.944-35.038    C167.462,343.405,172.373,328.263,184.659,326.48z"/><path d="M525,131.259C525,83.695,486.305,45,438.741,45H420v40c0,8.284-6.716,15-15,15s-15-6.716-15-15V45H150v40    c0,8.284-6.716,15-15,15s-15-6.716-15-15V45h-18.741C53.695,45,15,83.695,15,131.259V165h510V131.259z"/><path d="M243.192,384.402l-4.681,27.29l24.508-12.885c4.371-2.297,9.59-2.297,13.961,0l24.508,12.885l-4.681-27.29    c-0.835-4.866,0.778-9.831,4.314-13.277l19.827-19.327l-27.401-3.981c-4.886-0.71-9.108-3.778-11.294-8.205L270,314.781    l-12.254,24.829c-2.186,4.427-6.408,7.495-11.294,8.205l-27.401,3.981l19.827,19.327    C242.414,374.571,244.027,379.535,243.192,384.402z"/><path d="M150,30c0-8.284-6.716-15-15-15s-15,6.716-15,15v15h30V30z"/><path d="M420,30c0-8.284-6.716-15-15-15s-15,6.716-15,15v15h30V30z"/></g></g><text x="0" y="555" fill="#000000" font-size="5px" font-weight="bold" font-family="'Helvetica Neue', Helvetica, Arial-Unicode, Arial, Sans-serif">Created by Icon Market</text><text x="0" y="560" fill="#000000" font-size="5px" font-weight="bold" font-family="'Helvetica Neue', Helvetica, Arial-Unicode, Arial, Sans-serif">from the Noun Project</text></svg>