<svg xmlns="http://www.w3.org/2000/svg" data-name="Layer 44" viewBox="0 0 24 30" x="0px" y="0px"><title>social media_user interface</title><path d="M12,2A10.011,10.011,0,0,0,2,12a1,1,0,0,0,1.555.832l3-2A1,1,0,1,0,5.445,9.168l-1.181.787a8,8,0,1,1,.19,4.712,1,1,0,0,0-1.886.666A10,10,0,1,0,12,2Z"/><path d="M12,6a1,1,0,0,0-1,1v5a1,1,0,0,0,.293.707l3,3a1,1,0,0,0,1.414-1.414L13,11.586V7A1,1,0,0,0,12,6Z"/><text x="0" y="39" fill="#000000" font-size="5px" font-weight="bold" font-family="'Helvetica Neue', Helvetica, Arial-Unicode, Arial, Sans-serif">Created by Adriansyah</text><text x="0" y="44" fill="#000000" font-size="5px" font-weight="bold" font-family="'Helvetica Neue', Helvetica, Arial-Unicode, Arial, Sans-serif">from the Noun Project</text></svg>