<svg xmlns="http://www.w3.org/2000/svg" viewBox="0 0 32 40" x="0px" y="0px"><title>10-shopping feeds</title><g data-name="10-shopping feeds"><path d="M27,21.74A1,1,0,0,0,26,21H7a1.89,1.89,0,0,1-2-2,1.88,1.88,0,0,1,2-2H24.71L29,5H4A1,1,0,0,0,4,7H7v8a3.89,3.89,0,0,0-4,4,3.89,3.89,0,0,0,4,4h.18a3,3,0,1,0,5.64,0h9.36A3,3,0,1,0,28,24,3,3,0,0,0,27,21.74ZM13,7c5.54,0,7,4.58,7,7a1,1,0,0,1-2,0c0-.51-.18-5-5-5a1,1,0,0,1,0-2Zm1,7a.91.91,0,0,0-1-1,1,1,0,0,1,0-2,2.91,2.91,0,0,1,3,3,1,1,0,0,1-2,0ZM11,24a1,1,0,1,1-1-1A1,1,0,0,1,11,24Zm14,1a1,1,0,1,1,1-1A1,1,0,0,1,25,25Z"/></g><text x="0" y="47" fill="#000000" font-size="5px" font-weight="bold" font-family="'Helvetica Neue', Helvetica, Arial-Unicode, Arial, Sans-serif">Created by Fiki Ahmadi</text><text x="0" y="52" fill="#000000" font-size="5px" font-weight="bold" font-family="'Helvetica Neue', Helvetica, Arial-Unicode, Arial, Sans-serif">from the Noun Project</text></svg>