<svg xmlns="http://www.w3.org/2000/svg" xmlns:xlink="http://www.w3.org/1999/xlink" version="1.1" x="0px" y="0px" viewBox="0 0 540 675" style="enable-background:new 0 0 540 540;" xml:space="preserve"><g><g><rect x="255" y="169" width="30" height="75"/><polygon points="225,154 225,109 195,109 195,184 195,244 225,244   "/><polygon points="345,124 315,124 315,154 315,244 345,244   "/><polygon points="405,79 375,79 375,109 375,244 405,244   "/><rect x="135" y="199" width="30" height="45"/><circle cx="195" cy="435" r="15"/><path d="M15,345v93.741C15,486.305,53.695,525,101.259,525h337.482C486.305,525,525,486.305,525,438.741V345H15z M450,450H237.42    c-6.192,17.459-22.865,30-42.42,30s-36.228-12.541-42.42-30H90c-8.284,0-15-6.716-15-15s6.716-15,15-15h62.58    c6.192-17.459,22.865-30,42.42-30s36.228,12.541,42.42,30H450c8.284,0,15,6.716,15,15S458.284,450,450,450z"/><path d="M525,315V101.259C525,53.695,486.305,15,438.741,15H101.259C53.695,15,15,53.695,15,101.259V315H525z M105,184    c0-8.284,6.716-15,15-15h45V94c0-8.284,6.716-15,15-15h60c8.284,0,15,6.716,15,15v45h30v-30c0-8.284,6.716-15,15-15h45V64    c0-8.284,6.716-15,15-15h60c8.284,0,15,6.716,15,15v195c0,8.284-6.716,15-15,15c-58.47,0-198.405,0-300,0c-8.284,0-15-6.716-15-15    V184z"/></g></g><text x="0" y="555" fill="#000000" font-size="5px" font-weight="bold" font-family="'Helvetica Neue', Helvetica, Arial-Unicode, Arial, Sans-serif">Created by Icon Market</text><text x="0" y="560" fill="#000000" font-size="5px" font-weight="bold" font-family="'Helvetica Neue', Helvetica, Arial-Unicode, Arial, Sans-serif">from the Noun Project</text></svg>